<?xml version="1.0" encoding="utf-8"?>
<!-- Generator: Adobe Illustrator 15.0.2, SVG Export Plug-In . SVG Version: 6.00 Build 0)  -->
<!DOCTYPE svg PUBLIC "-//W3C//DTD SVG 1.1//EN" "http://www.w3.org/Graphics/SVG/1.1/DTD/svg11.dtd">
<svg version="1.1" id="Layer_1" xmlns="http://www.w3.org/2000/svg" xmlns:xlink="http://www.w3.org/1999/xlink" x="0px" y="0px"
	 width="193px" height="125.549px" viewBox="0 0 193 125.549" enable-background="new 0 0 193 125.549" xml:space="preserve">
<g>
	<g>
		<path fill="#A6A6A6" d="M152.572,44.845c-4.715,0-9.212,0.916-13.381,2.522c-0.95-2.366-1.918-4.756-2.879-7.157h23.976
			c0.634,0,1.203-0.415,1.394-1.025l2.286-7.451c0-0.017,0.011-0.023,0.011-0.04v-0.006l4.515-14.717
			c0.144-0.438,0.052-0.921-0.219-1.284c-0.271-0.369-0.708-0.593-1.157-0.593h-39.821l2.303-7.894
			c0.201-0.691,0.052-1.434-0.409-1.986c-0.448-0.559-1.14-0.841-1.865-0.794L110.293,5.87c-0.985,0.081-1.791,0.829-1.958,1.808
			c-0.139,0.893-1.33,8.833,2.787,12.949c0.84,0.847,2.222,0.847,3.074,0c0.841-0.852,0.841-2.234,0-3.08
			c-1.67-1.67-1.871-5.171-1.744-7.497l12.085-1.03l-1.945,6.673c-0.139,0.46-0.115,0.944,0.057,1.382
			c0.433,1.157,1.509,3.996,3,7.854c-21.562,3.351-38.209,9.766-50.836,17.176L68.18,21.946c2.234-0.933,4.923-2.361,7.249-2.522
			c4.065-0.276,7.053-0.271,7.589-0.731c0.547-0.46,0.42-4.652-8.269-4.042c-8.677,0.582-7.992-0.063-17.498,0
			c-1.394,0-7.865,5.533,1.209,5.977c0,0,3.161,0.236,5.125,1.319h0.012c0.011,0.011,0,0.029,0.011,0.04l7.411,22.519
			c-3.794,2.436-7.255,4.917-10.295,7.428c-6.098-4.353-13.525-6.944-21.575-6.944c-20.521,0-37.242,16.715-37.242,37.251
			c0,20.544,16.721,37.253,37.242,37.253c17.636,0,32.428-12.345,36.257-28.835l3.42,0.575c0.375,4.215,3.564,7.612,7.704,8.269
			v6.736c0,0.403,0.322,0.726,0.72,0.726h5.988c0.397,0,0.72-0.322,0.72-0.726v-1.439c0-0.402-0.323-0.726-0.72-0.726h-3.092
			c-0.391,0-0.72-0.334-0.72-0.725v-3.847c4.405-0.691,7.797-4.479,7.797-9.086c0-2.096-0.732-4.008-1.9-5.551L132,41.137
			c1.042,2.62,2.124,5.303,3.225,8.021c-11.815,6.248-19.894,18.653-19.894,32.92c0,20.545,16.703,37.254,37.241,37.254
			c20.539,0,37.248-16.709,37.248-37.254C189.82,61.542,173.111,44.845,152.572,44.845z M151.542,17.996h13.605l-1.157,3.794
			h-12.448V17.996z M151.542,24.692h11.55l-1.698,5.55h-9.852V24.692z M151.542,33.145h8.959l-1.278,4.163h-7.681V33.145z
			 M140.913,17.996h7.727v3.794h-7.727V17.996z M140.913,24.692h7.727v5.55h-7.727V24.692z M140.913,33.145h7.727v4.163h-7.727
			V33.145z M138.022,17.996v3.794h-8.734l-1.399-3.794H138.022z M39.148,112.675c-16.779,0-30.437-13.657-30.437-30.436
			c0-16.776,13.658-30.434,30.437-30.434c6,0,11.562,1.802,16.283,4.808c-6.604,6.305-10.952,12.232-13.773,16.781
			c-0.794-0.23-1.629-0.392-2.51-0.392c-5.09,0-9.242,4.146-9.242,9.236c0,5.101,4.151,9.235,9.242,9.235
			c3.754,0,6.973-2.246,8.423-5.47l21.045,3.512C65.329,102.784,53.416,112.675,39.148,112.675z M45.488,82.24
			c0,3.5-2.845,6.345-6.339,6.345c-3.495,0-6.34-2.845-6.34-6.345c0-3.501,2.845-6.334,6.34-6.334
			C42.643,75.906,45.488,78.739,45.488,82.24z M69.291,85.222l-20.958-3.501c-0.126-2.407-1.169-4.561-2.798-6.138
			c2.775-4.342,7.071-10.073,13.548-16.16C65.479,65.009,69.59,73.119,69.59,82.24C69.59,83.264,69.389,84.232,69.291,85.222z
			 M79.436,86.926l-3.276-0.553c0.15-1.359,0.242-2.729,0.242-4.134c0-10.837-4.681-20.576-12.098-27.388
			c2.47-1.998,5.211-3.979,8.17-5.931L83.49,82.389C81.676,83.403,80.242,84.992,79.436,86.926z M89.426,96.461v-4.157
			c0.576-0.438,0.968-1.105,0.968-1.889c0-1.336-1.083-2.418-2.413-2.418c-1.342,0-2.424,1.082-2.424,2.418
			c0,0.783,0.397,1.451,0.973,1.889v4.157c-2.787-0.68-4.883-3.063-4.883-6.046c0-3.501,2.833-6.345,6.339-6.345
			c3.489,0,6.34,2.844,6.34,6.345C94.326,93.41,92.207,95.793,89.426,96.461z M129.944,36.818L91.959,82.113
			c-1.221-0.588-2.551-0.933-3.973-0.933c-0.104,0-0.201,0.022-0.299,0.022L76.246,46.469c12.5-7.543,29.176-14.142,50.998-17.418
			c0.903,2.321,1.899,4.877,2.965,7.56C130.117,36.686,130.02,36.732,129.944,36.818z M130.358,24.692h7.664v5.55h-5.625
			L130.358,24.692z M135.155,37.308c-0.547-1.399-1.089-2.781-1.642-4.163h4.509v4.163H135.155z M152.572,112.526
			c-16.778,0-30.441-13.658-30.441-30.448c0-11.412,6.408-21.266,15.73-26.471c3.046,7.347,6.062,14.311,8.597,19.608
			c-1.895,1.693-3.121,4.123-3.121,6.863c0,5.102,4.151,9.248,9.241,9.248c5.102,0,9.236-4.146,9.236-9.248
			c0-5.09-4.135-9.235-9.236-9.235c-0.812,0-1.577,0.139-2.32,0.334c-2.354-4.998-5.314-11.875-8.452-19.464
			c3.356-1.284,6.961-2.062,10.767-2.062c16.779,0,30.442,13.652,30.442,30.427C183.015,98.868,169.352,112.526,152.572,112.526z
			 M154.651,81.111c-0.668-0.656-1.728-2.499-3.063-5.171c0.34-0.046,0.64-0.195,0.99-0.195c3.501,0,6.34,2.844,6.34,6.333
			c0,3.501-2.839,6.346-6.34,6.346c-3.495,0-6.339-2.845-6.339-6.346c0-1.565,0.633-2.971,1.589-4.076
			c1.543,3.04,2.851,5.309,3.737,6.195c0.42,0.427,0.984,0.634,1.543,0.634c0.547,0,1.111-0.207,1.543-0.634
			C155.492,83.345,155.492,81.963,154.651,81.111z"/>
	</g>
</g>
</svg>
